<svg id="Layer_1" xmlns="http://www.w3.org/2000/svg" viewBox="0 0 132 132"><style>.st0{fill:#39b54a}.st1{fill:#fff}.st2,.st3{stroke:#d7df23;stroke-width:6.4765;stroke-linecap:round;stroke-miterlimit:10}.st2{stroke-linejoin:round;fill:none}.st3{fill:#fff}</style><path class="st0" d="M132 122.4c0 5.3-4.3 9.6-9.6 9.6H9.6c-5.3 0-9.6-4.3-9.6-9.6V9.6C0 4.3 4.3 0 9.6 0h112.7c5.3 0 9.6 4.3 9.6 9.6v112.8z"/><path class="st1" d="M109.3 47.5v9.7h-9.4v-9.7H90V38h9.8v-9.7h9.4V38h9.8v9.6h-9.7z"/><path class="st2" d="M26.4 42l39.7 33.5 24.6-20.8"/><path class="st3" d="M53.7 77.6L28.6 99.7M79.6 77.6l25.1 22.1"/><path class="st2" d="M106 70.1v30.2H26.4V42h50.5"/></svg>
